<?xml version="1.0" encoding="UTF-8"?>
<svg id="Layer_1" data-name="Layer 1" xmlns="http://www.w3.org/2000/svg" viewBox="0 0 714.75 617.21">
  <defs>
    <style>
      .cls-1 {
        fill: #8cc63f;
      }
    </style>
  </defs>
  <g>
    <path d="m341.25,330.36l-.11.35c-9.72,31.34-38.32,52.4-71.17,52.4-41.08,0-74.5-33.42-74.5-74.5s33.42-74.5,74.5-74.5c14.94,0,26.28,4.54,30.46,6.49,4.43,2.07,8.75,4.66,12.82,7.7,1.19.89,2.41,1.86,3.62,2.88l.35.3,18.7-18.7-.41-.35c-.56-.48-1.13-.97-1.7-1.44-17.92-14.75-40.59-22.88-63.84-22.88-55.42,0-100.5,45.08-100.5,100.5s45.08,100.5,100.5,100.5c22.92,0,45.33-7.92,63.12-22.29,17.53-14.17,29.92-34,34.88-55.85l.14-.61h-26.86Z"/>
    <path d="m370.4,312.36h-26.03l-.03.5h0l-.03.47c-.17,2.77-.51,5.58-1,8.36l-.21,1.17h26.37l.07-.5h0l.06-.43s0-.06.01-.1l.06-.47h-.01c.31-2.48.54-5,.67-7.5h.01l.02-.38s0-.06,0-.1l.02-.52h0l.02-.5Z"/>
  </g>
  <g>
    <path class="cls-1" d="m444.78,208.11c-22.92,0-45.33,7.92-63.12,22.29-17.53,14.17-29.92,34-34.88,55.85l-.14.61h26.86l.11-.35c9.72-31.34,38.32-52.4,71.17-52.4,41.08,0,74.5,33.42,74.5,74.5s-33.42,74.5-74.5,74.5c-14.94,0-26.28-4.54-30.46-6.49-4.43-2.07-8.75-4.66-12.82-7.7-1.19-.89-2.41-1.86-3.62-2.88l-.35-.3-18.7,18.7.41.35c.56.48,1.13.97,1.7,1.44,17.92,14.75,40.59,22.88,63.84,22.88,55.42,0,100.5-45.08,100.5-100.5s-45.08-100.5-100.5-100.5Z"/>
    <path class="cls-1" d="m344.37,304.86h26.03l-.02-.5h.04l.03-.47c.17-2.77.51-5.6,1.01-8.39l.21-1.15h-26.37l-.07.5h0l-.06.43s0,.05,0,.08l-.07.49h.01c-.31,2.49-.54,5-.67,7.5l-.05,1.5Z"/>
  </g>
</svg>